<?xml version="1.0" encoding="utf-8"?>
<svg width="1000" height="1000" viewBox="0 0 1000 1000" version="1.2" baseProfile="tiny-ps" xmlns="http://www.w3.org/2000/svg">
  <title>Bemi-Icon</title>
  <defs />
  <g id="Layer_3">
    <rect width="1000" height="1000" />
  </g>
  <g id="Layer_1">
    <path d="m795.54,416.16h.03c4.87-4.88,6.62-12.39,3.79-19.16l-77.45-186.88c-3.68-8.94-13.97-13.2-22.88-9.49-.03,0-.01,0-.01,0h-.02s-16.18,6.72-16.18,6.72l38.12,111.77c-27.53-27.55-70-37.36-108.17-21.52-16.23,6.71-29.68,17.27-39.86,30.13l-29.88-75.44-47.22,37.46-59.67-8.81,8.84,59.63-37.48,47.25,47.33,18.73c-15.44,49.41-3.7,105.53,35.48,144.72l126.68,126.7c9.65,9.62,9.65,25.26.02,34.89-9.61,9.65-25.24,9.64-34.91,0l-126.32-126.26-.04-.05c-31.75-31.77-76.4-42.74-117.17-33.12l-18.07-45.71-42,33.26-53.03-7.81,7.83,53-33.28,42.02,45.72,18.07c-9.57,40.75,1.36,85.37,33.15,117.16h.02-.02c48.86,48.84,128.08,48.79,176.92-.02,0,0-102.79-38.69-120.49-56.4v-.02c-17.63-17.69-17.66-46.34.02-64,17.68-17.65,46.33-17.69,64.01-.02v.02s126.34,126.28,126.34,126.28c40.74,40.74,106.75,40.72,147.47,0,40.73-40.74,40.72-106.74-.02-147.43l-126.72-126.69c.01-.06-.02,0,.01-.06-9.63-9.59-9.61-25.22,0-34.89,9.55-9.54,25.03-9.55,34.71-.13l.19.18,136.34,136.29c6.84,6.84,17.93,6.82,24.78-.02,0,0,0-.02.03-.02l12.38-12.39-12.38-12.41-26.55-26.52,59.02-59.03,16.53-16.53-14.45-34.9,18.57-18.55h-.03Zm-150.67,12.98l-30.76,13.26-3.84-33.25-26.86-19.95,26.85-19.98,3.86-33.26,30.74,13.3v79.88Zm84.19,5.57c-14.7,0-26.62-11.89-26.61-26.62v-26.6s7.79,7.79,7.79,7.79l37.68,37.64,7.79,7.8h-26.65Z" fill="#fff" />
  </g>
</svg>